PathFileType	4	(X/Y/Z)	D:\TRACE\v60_Jaco2_6-2-23\JustBodyDRS_Motion3_4-platform.trc
DataRate	CameraRate	NumFrames	NumMarkers	Units	OrigDataRate	OrigDataStartFrame	OrigNumFrames
100.00	100.00	      42	5	mm	100.00	6126	      7000
Frame#	Time	Left_Front			Right_Front			Left_Aft			Right_Aft			Post			
		X1	Y1	Z1	X2	Y2	Z2	X3	Y3	Z3	X4	Y4	Z4	X5	Y5	Z5	

6126	61.250	-784.75568	37.84800	-643.65918	785.74866	36.04685	-620.68341	-716.24768	-8.48769	489.58484	698.17352	-14.67442	595.09662	9.97200	1348.03015	-900.39484	
6127	61.260	-784.79614	37.54596	-643.66791	785.68182	35.89063	-620.71967	-716.55762	-8.16200	489.31186	698.15204	-14.56199	595.10693	9.85645	1347.81873	-900.71838	
6128	61.270	-784.87897	37.68589	-643.76837	785.59387	35.73344	-620.73438	-716.66089	-7.98844	489.34418	698.15674	-14.54576	595.16595	9.83031	1347.67603	-900.98761	
6129	61.280	-785.09009	37.57501	-643.92102	785.57324	35.73627	-620.73138	-716.68866	-7.90635	489.36749	698.21069	-14.41580	595.15515	9.95447	1347.50317	-901.30664	
6130	61.290	-785.09314	37.49747	-643.92255	785.52368	35.71301	-620.75183	-716.72943	-7.82164	489.36740	698.21338	-14.30371	595.08002	9.99812	1347.42786	-901.67188	
6131	61.300	-785.22784	37.18134	-644.07135	785.47882	35.57375	-620.78394	-716.77771	-7.77863	489.32770	698.16907	-14.15763	594.95715	9.78814	1347.10767	-902.18719	
6132	61.310	-785.27106	37.04827	-644.13080	785.36981	35.39098	-620.81921	-716.79755	-7.77373	489.31281	698.09277	-14.05579	594.89490	9.65334	1346.91589	-902.50531	
6133	61.320	-785.24243	36.95520	-644.11707	785.27594	35.23033	-620.83972	-716.82233	-7.79057	489.31995	697.96631	-13.83932	595.02869	9.60468	1346.85461	-902.64276	
6134	61.330	-785.27527	36.98352	-644.04053	785.18701	35.13631	-620.88623	-716.80414	-7.73516	489.38696	697.99011	-13.65699	595.03546	9.60202	1346.61646	-902.94891	
6135	61.340	-785.32001	36.73434	-644.15912	785.06860	35.01021	-620.89008	-716.81018	-7.71908	489.37628	698.12225	-13.53018	594.82324	9.67732	1346.38318	-903.25006	
6136	61.350	-785.25275	36.86422	-644.03369	785.15222	34.82716	-621.01233	-716.78821	-7.52778	489.30087	697.97577	-13.44456	594.76343	9.50439	1346.17786	-903.48773	
6137	61.360	-785.26288	36.68213	-644.13562	785.21179	34.62966	-621.03094	-716.79303	-7.42353	489.26709	697.91608	-13.36260	594.72034	9.48121	1345.93787	-903.77502	
6138	61.370	-785.22870	36.46739	-644.23987	785.21991	34.45266	-621.11987	-716.87726	-7.31910	489.15497	697.89319	-13.17677	594.77179	9.37587	1345.72266	-903.87146	
6139	61.380	-785.22888	36.35930	-644.31927	785.24121	34.28907	-621.12665	-716.88257	-7.24755	489.15051	697.90155	-13.02636	594.78058	9.46269	1345.45374	-904.25323	
6140	61.390	-785.05554	35.99971	-644.06976	785.30286	34.17817	-621.19250	-716.96533	-7.02485	489.05899	697.77802	-12.87801	594.77386	9.66604	1345.28308	-904.56500	
6141	61.400	-785.14795	35.71775	-644.30603	785.34119	34.00905	-621.24158	-717.05933	-6.70985	488.85815	697.79242	-12.72468	594.71594	9.62945	1345.08911	-905.02026	
6142	61.410	-785.10931	35.50681	-644.34778	785.29260	33.79482	-621.33942	-716.91711	-6.83087	488.93555	697.74915	-12.54087	594.64392	9.49168	1344.70361	-905.80817	
6143	61.420	-785.14105	35.31651	-644.36926	785.19006	33.47005	-621.39813	-716.98083	-6.74990	488.98627	697.70160	-12.40480	594.52869	9.54373	1344.17004	-906.41022	
6144	61.430	-785.30231	35.03316	-644.52588	785.17883	33.18582	-621.44403	-716.94806	-6.62577	489.02646	697.70850	-12.25383	594.46893	9.38258	1343.59241	-906.99518	
6145	61.440	-785.27460	34.92611	-644.57019	785.24316	32.93685	-621.45703	-716.85999	-6.49758	488.98041	697.73462	-12.07850	594.38354	9.53777	1343.41296	-907.56793	
6146	61.450	-785.32385	34.84316	-644.62592	785.29242	32.74370	-621.50598	-716.79944	-6.31653	488.87979	697.87445	-11.96243	594.32001	9.72390	1343.23145	-908.28320	
6147	61.460	-785.38647	34.60921	-644.73041	785.27588	32.46850	-621.65027	-716.78259	-6.14118	488.75723	697.85242	-11.71706	594.24622	9.79769	1342.95557	-909.08191	
6148	61.470	-785.43976	34.42220	-644.81268	785.24451	32.12709	-621.81323	-716.80200	-6.01689	488.68561	697.85736	-11.33106	594.17737	9.69734	1342.56006	-909.64972	
6149	61.480	-785.56030	33.93692	-644.95398	785.14667	31.84936	-621.81512	-716.84479	-5.80321	488.59528	697.85919	-10.99362	594.11255	9.59867	1342.02393	-910.31470	
6150	61.490	-785.57709	33.62175	-645.04340	785.16071	31.49747	-621.94897	-716.84857	-5.57763	488.52219	697.90436	-10.75862	594.08588	9.84217	1341.64551	-910.77362	
6151	61.500	-785.49323	33.22357	-645.10181	785.29736	31.28948	-622.08594	-716.80768	-5.33530	488.50949	697.01654	-10.58781	594.25562	9.95182	1341.18201	-911.25665	
6152	61.510	-785.06860	32.72260	-644.65155	785.40656	31.07353	-622.13141	-716.73151	-4.89516	488.48618	697.27625	-10.28797	594.13879	10.11048	1340.73401	-912.02838	
6153	61.520	-784.89435	32.55183	-644.68219	785.49139	30.91139	-622.11584	-716.65802	-4.56721	488.39551	697.32037	-10.02811	594.02344	10.22899	1340.25525	-912.89795	
6154	61.530	-784.82849	32.30118	-644.68878	785.66351	30.36960	-622.27795	-716.24274	-4.65709	488.24887	697.77887	-9.75714	593.88690	10.31139	1339.85388	-913.52576	
6155	61.540	-785.07269	31.93341	-645.26233	785.82111	29.94845	-622.40454	-716.22272	-4.37512	488.22977	697.90222	-9.61203	593.79248	10.28614	1339.18396	-914.40649	
6156	61.550	-784.97656	31.49050	-645.43213	785.95856	29.67194	-622.49768	-716.13190	-4.18781	488.17258	698.09979	-9.35041	593.72180	10.42195	1338.75256	-914.92151	
6157	61.560	-784.92456	31.25709	-645.64087	785.99908	29.41187	-622.62860	-716.01044	-3.96429	487.98166	697.89398	-9.00615	593.81769	10.55004	1338.40234	-915.86658	
6158	61.570	-784.75580	31.00742	-645.71954	786.06384	29.09600	-622.70703	-715.87836	-3.75984	487.92560	698.08527	-8.66646	593.82428	10.81178	1337.99084	-916.92010	
6159	61.580	-784.64008	30.76566	-645.75610	786.19342	28.77712	-622.71320	-715.72095	-3.42456	487.90820	698.20416	-8.44453	593.84265	10.57872	1337.57471	-917.49207	
6160	61.590	-784.43304	30.41488	-645.84314	786.30206	28.39400	-622.74725	-715.58411	-3.23984	487.85477	698.58789	-8.08356	593.51422	10.61397	1336.88684	-918.26270	
6161	61.600	-784.20776	29.71848	-645.78333	786.42169	27.85167	-623.04260	-715.47461	-3.04032	487.84091	698.98492	-7.54609	593.54028	10.72497	1336.31250	-918.77155	
6162	61.610	-784.05408	29.18673	-645.74915	786.60870	27.45898	-623.08350	-715.31696	-2.82747	487.84384	699.20288	-7.32791	593.42151	11.09583	1335.45154	-919.78198	
6163	61.620	-783.70355	28.86145	-645.78607	786.70776	27.07461	-623.15045	-715.04504	-2.47225	487.82275	699.16248	-7.05500	593.31592	11.55818	1335.08276	-920.83984	
6164	61.630	-783.49579	28.56500	-645.83179	786.86981	26.80138	-623.24408	-714.85510	-2.09690	487.77145	699.38605	-6.61721	593.15802	11.61066	1334.65247	-921.71246	
6165	61.640	-783.36292	28.04459	-645.93286	787.02435	26.47862	-623.29791	-714.64563	-1.77202	487.68417	699.53107	-6.32589	593.12756	11.68899	1334.27966	-922.44952	
6166	61.650	-783.27747	27.57639	-646.23816	787.28552	26.08320	-623.47095	-714.61346	-1.47343	487.56030	699.61725	-6.12650	593.02448	12.02867	1333.54858	-923.45905	
6167	61.660	-783.11713	27.17289	-646.45612	787.39276	25.63964	-623.61261	-714.50867	-1.29918	487.51001	699.61194	-5.92552	592.90149	12.11730	1333.08606	-924.56744	
